<?xml version="1.0" encoding="UTF-8"?>
<svg width="188px" height="46px" viewBox="0 0 188 46" version="1.1" xmlns="http://www.w3.org/2000/svg" xmlns:xlink="http://www.w3.org/1999/xlink">
    <!-- Generator: sketchtool 61.2 (101010) - https://sketch.com -->
    <title>9B0B2A29-0835-4B85-A68D-5058FE069E16</title>
    <desc>Created with sketchtool.</desc>
    <defs>
        <polygon id="path-1" points="0 0.147829105 3.49569412 0.147829105 3.49569412 45.2111771 0 45.2111771"></polygon>
    </defs>
    <g id="Maquettes" stroke="none" stroke-width="1" fill="none" fill-rule="evenodd">
        <g id="home" transform="translate(-122.000000, -31.000000)">
            <g id="header" transform="translate(120.000000, 31.000000)">
                <g id="Group-10" transform="translate(2.000000, 0.000000)">
                    <g id="KBCRAWL-logo">
                        <g id="Group-20">
                            <g id="Group-3" transform="translate(0.000000, 0.537632)">
                                <mask id="mask-2" fill="white">
                                    <use xlink:href="#path-1"></use>
                                </mask>
                                <g id="Clip-2"></g>
                                <path d="M3.49569412,1.06848096 L0.239561765,0.155184955 C0.119297059,0.12092779 -0.000276470588,0.210681561 -0.000276470588,0.334007353 L-0.000276470588,45.0245337 C-0.000276470588,45.1485447 0.119297059,45.2376133 0.239561765,45.2040413 L3.49569412,44.2900601 L3.49569412,1.06848096 Z" id="Fill-1" fill="#00355F" mask="url(#mask-2)"></path>
                            </g>
                            <path d="M17.971625,27.5498857 L17.971625,45.5020101 C17.971625,45.6561673 18.1202279,45.7671606 18.2702132,45.7253668 L27.3197868,42.9614988 L17.971625,27.5498857 Z" id="Fill-4" fill="#00355F"></path>
                            <path d="M19.3937897,12.5553878 C21.3069662,9.27012572 23.4862456,6.73098469 25.4381279,6.70700468 L34.1296721,6.70700468 L34.1296721,5.72382406 C34.1296721,5.61968228 34.0598632,5.52855822 33.9589515,5.50046735 L18.2699368,0.708575189 C18.1206426,0.666781448 17.9713485,0.778459804 17.9713485,0.932617044 L17.9713485,14.9965533 L19.3937897,12.5553878 Z" id="Fill-6" fill="#00355F"></path>
                            <path d="M45.8458044,31.5252926 L44.4468632,33.9267198 C44.3825838,34.0370279 44.2229221,34.0383982 44.1572603,33.9294604 L41.2114662,29.0738499 C41.1803632,29.0224641 41.1796721,28.9573755 41.2100838,28.9046195 L42.7023338,26.3435539 C44.1994221,23.7735814 45.3129074,23.2405399 46.4063485,25.0431519 C47.4997897,26.8450788 47.3428926,28.9560052 45.8458044,31.5252926 M39.5678485,22.064834 L38.4336279,24.0133816 C38.3693485,24.1230045 38.2096868,24.1243748 38.1433338,24.0161221 L35.512025,19.6777948 L36.7893191,17.4846512 C38.0216868,15.3682436 38.9589221,14.987989 39.8692015,16.4884528 C40.7808632,17.9916572 40.8002162,19.9491116 39.5678485,22.064834 M50.3785397,19.1426979 C48.4204368,15.9143028 46.2266426,16.0006308 44.4517015,17.6675844 L44.3604662,17.5168529 C45.0053338,14.877681 44.2512603,11.2642353 42.9760397,9.16221565 C40.0606574,4.35593548 36.8646574,7.23627787 33.8697897,12.3775931 L28.8926279,20.9233853 C28.7848044,21.108374 28.7868779,21.3372119 28.8981574,21.5201451 L30.6157309,24.3525275 L32.5634662,27.5631089 L43.3762309,45.389167 C43.4425838,45.4981048 43.6022456,45.4967345 43.666525,45.3864264 L49.1164515,36.0287394 C52.1984074,30.7373778 53.4321574,24.1764457 50.3785397,19.1426979" id="Fill-8" fill="#00355F"></path>
                            <path d="M176.052254,20.3602661 L175.431578,20.3602661 C174.602166,20.3602661 173.773446,20.3588958 172.945416,20.3602661 C171.961181,20.3616363 171.665357,20.5740308 171.364004,21.4962336 L166.159446,37.4306111 C166.149078,37.4614425 166.138019,37.4929591 166.126269,37.5237906 L159.909137,20.9762099 C159.576681,20.092375 159.284313,19.8875172 158.345004,19.8779252 C157.595769,19.8703886 156.849299,19.8710738 156.099372,19.8779252 C155.156607,19.8875172 154.884284,20.0752465 154.569107,20.9371567 L148.595269,37.2709727 L142.978769,21.5161028 C142.831549,21.100906 142.582725,20.4041152 141.801696,20.3856164 C140.431093,20.3540998 139.028696,20.3520443 137.51571,20.3801352 C137.161828,20.3869867 136.971754,20.5288113 136.874299,20.6459708 C136.770622,20.7720372 136.662107,21.0049859 136.73399,21.3996284 C136.761637,21.55036 136.816931,21.6880738 136.870843,21.8216767 L143.363754,38.639889 C144.077049,40.4870353 144.790343,42.3348667 145.505019,44.1813279 C145.849916,45.0720142 146.152651,45.2775572 147.125828,45.2789275 L149.061122,45.2789275 C150.118622,45.2782423 150.352931,45.1165485 150.73446,44.1285719 L157.050431,27.7776273 C157.065637,27.7365187 157.082916,27.6960952 157.100196,27.6536164 L163.620754,44.2608045 C163.944916,45.085717 164.226916,45.2761869 165.126137,45.2782423 L166.411034,45.2789275 L166.960519,45.2789275 C167.962725,45.2782423 168.295181,45.0514599 168.655975,44.1237759 L177.209284,21.9957031 C177.423549,21.440737 177.52446,21.010467 177.321254,20.7165406 C177.115975,20.4205587 176.666019,20.3602661 176.052254,20.3602661" id="Fill-10" fill="#00355F"></path>
                            <path d="M125.87851,36.6644839 C124.761569,38.7952795 122.956216,40.0607391 120.515672,40.4252354 C118.066834,40.7897316 115.947687,40.1731026 114.224584,38.5883662 C112.57751,37.0735144 111.800628,35.1372995 111.779201,32.504979 C111.916054,29.3985393 113.403466,27.0902916 116.081775,25.8296279 C117.095731,25.352083 118.218201,25.1157086 119.340672,25.1157086 C120.574422,25.1157086 121.808172,25.4020985 122.89401,25.9728229 C124.930216,27.0416464 126.262804,28.9833425 126.644334,31.438896 C126.949143,33.3908692 126.698246,35.0996166 125.87851,36.6644839 M131.078231,20.3628696 C130.125099,20.3532776 129.172657,20.3546479 128.22229,20.3621845 C127.45854,20.3683508 127.097054,20.6794058 127.013422,21.4029171 C126.951907,21.9297923 126.915275,22.4600932 126.876569,23.0219107 C126.869657,23.1301633 126.862054,23.2391011 126.85376,23.3494092 C124.711113,21.2035404 122.146157,20.082646 119.025496,19.9284888 C114.45129,19.7071875 110.850951,21.4460811 108.314334,25.1109126 C106.278128,28.0522327 105.58626,31.5375566 106.257393,35.4702791 C107.23679,41.212465 111.620922,45.3267505 117.16554,45.7076901 C117.516657,45.7316701 117.862246,45.7433176 118.203687,45.7433176 C121.80679,45.7433176 124.771246,44.3867339 127.025172,41.7037127 L127.145437,44.1496743 C127.183451,44.904017 127.569819,45.2726241 128.32804,45.276735 C129.279099,45.281531 130.232231,45.286327 131.183981,45.2746796 C131.816407,45.2678281 132.167525,44.9595137 132.257378,44.3339778 C132.284334,44.1400823 132.283643,43.9455016 132.283643,43.7577723 L132.284334,21.9393843 L132.285025,21.827706 C132.286407,21.7078059 132.286407,21.588591 132.277422,21.4700612 C132.217981,20.7116075 131.848893,20.369721 131.078231,20.3628696" id="Fill-12" fill="#00355F"></path>
                            <path d="M72.3467544,25.6861589 C75.1778132,24.7276434 77.9231662,24.935927 80.5067838,26.3068987 C81.3493279,26.7542973 81.7750926,26.6343972 82.2547691,25.8129104 C82.645975,25.1435254 83.0364897,24.4748256 83.4228574,23.8033851 C83.9274162,22.9250314 83.7960926,22.4241917 82.9203721,21.8884097 C80.7901662,20.5866374 78.3537691,19.9371216 75.2538426,19.8453124 L75.2427838,19.8446272 L75.231725,19.8459975 C74.9946515,19.8665518 74.7575779,19.8843655 74.5205044,19.9028644 C74.0200926,19.9405473 73.5030926,19.9802856 72.9957691,20.0453742 C65.7004015,20.9895017 60.7619456,27.0687781 61.5084162,34.1867317 C61.9977691,38.8525575 64.3816368,42.2700522 68.592975,44.3439809 C70.5151368,45.2915341 72.6287544,45.7567464 75.0216074,45.7567464 C75.4570485,45.7567464 75.901475,45.7416732 76.3555779,45.7115269 C78.8645485,45.5409262 81.0168721,44.894151 82.9369603,43.7348885 C83.6779015,43.2881751 83.8106074,42.8010382 83.397975,42.0549172 C82.9659897,41.2731687 82.5215632,40.4982716 82.0757544,39.7240597 C81.6969897,39.0663222 81.3265191,38.9587547 80.6553868,39.3150292 C78.8673132,40.2632675 76.8905485,40.6448923 74.6131221,40.4811431 C70.7176515,40.2009195 67.8036515,37.5453041 67.3640632,33.872936 C66.9175632,30.1375348 68.9199015,26.8474768 72.3467544,25.6861589" id="Fill-14" fill="#00355F"></path>
                            <path d="M187.762443,9.46717293 C187.763825,8.92659487 187.765899,8.38601682 187.752766,7.84543876 C187.73756,7.20003379 187.380222,6.83896327 186.747796,6.82868612 C185.582472,6.81155754 184.34734,6.8108724 183.076266,6.82800098 C182.462501,6.8362227 182.102399,7.17536863 182.031899,7.80981131 C182.013237,7.9948 182.013237,8.18252926 182.013237,8.36957338 L182.012546,43.6715813 L182.011163,43.7832597 C182.010472,43.9011043 182.009781,44.0196341 182.016693,44.1367936 C182.064384,44.9322449 182.427943,45.2734463 183.233854,45.276872 C183.654781,45.2789275 184.074325,45.2796126 184.49456,45.2796126 C184.786237,45.2796126 185.076531,45.2796126 185.367516,45.2796126 L186.239781,45.2789275 C187.505325,45.2789275 187.76106,45.0288502 187.76106,43.7928517 L187.761751,26.0736759 L187.76106,10.0207687 L187.762443,9.46717293 Z" id="Fill-16" fill="#00355F"></path>
                            <path d="M103.470638,19.9561 L102.945344,19.9540446 C102.104874,19.9485635 101.238829,19.9423972 100.402506,20.0780555 C97.6854912,20.5172324 95.6375353,21.8792972 94.3139324,24.1272524 C94.1978147,24.3238885 94.0962118,24.5287463 93.9953,24.7336042 L93.9959912,24.0340729 C93.9973735,23.2029941 93.9994471,22.3726004 93.9918441,21.5415216 C93.9849324,20.8180103 93.6047853,20.3918512 92.9481676,20.3726672 C91.9749912,20.3452614 90.9776235,20.3452614 89.9837118,20.3754077 C89.4204029,20.3918512 89.0513147,20.739904 88.9960206,21.3051472 C88.9759765,21.5113753 88.9676824,21.7196589 88.9676824,21.9272573 C88.9663,29.1973127 88.9663,36.4673681 88.9663,43.7367384 L88.9656088,43.8326585 C88.9649176,43.9217271 88.9642265,44.0114809 88.9697559,44.1005495 C89.0139912,44.9220363 89.3851529,45.2742 90.2090353,45.2776257 C90.6472412,45.278996 91.0854471,45.2796811 91.5236529,45.2796811 C91.9093294,45.2796811 92.2956971,45.278996 92.6813735,45.278996 L93.3677118,45.2783108 C94.4176088,45.2776257 94.7217265,44.9754775 94.7224176,43.9299488 L94.7224176,40.3281506 C94.7217265,37.8609496 94.7210353,35.3930635 94.7272559,32.9251773 C94.7279471,32.2996415 94.75905,31.6789017 94.8178,31.0800865 C95.1246824,27.9702211 97.8251088,25.4667075 100.966506,25.3817497 C101.537418,25.3653063 102.125609,25.4160069 102.695138,25.4639669 L102.968844,25.4872618 C103.442991,25.5276853 104.089932,25.4906875 104.172182,24.732919 C104.314565,23.4366279 104.423771,22.2348866 104.506021,21.0598659 C104.530903,20.7159239 104.450035,20.4425518 104.266182,20.2479711 C104.085094,20.0547607 103.816918,19.9561 103.470638,19.9561" id="Fill-18" fill="#00355F"></path>
                        </g>
                    </g>
                </g>
            </g>
        </g>
    </g>
</svg>